# xmcd
#
# Track frame offsets:
# 150
# 15240
# 29067
# 43745
# 58360
# 73227
# 88255
# 104797
# 119540
# 134512
#
# Disc length: 1976 seconds
#
#
# Revision: 0
# Processed by: cddbd v1.4PL0 Copyright (c) Steve Scherf et al.
# Submitted via: FreeRIP 2.52 
#
DISCID=9e07b60a
DTITLE=Various Artisis - Baby Loves Country
DYEAR=1999
DGENRE=Country
TTITLE0=Hushabye
TTITLE1=Mountain Memories
TTITLE2=Down In The Valley
TTITLE3=Hush Little Baby
TTITLE4=Little One
TTITLE5=Raindrops
TTITLE6=When Its Sleepytime
TTITLE7=All Through The Night
TTITLE8=Hush Little Baby (Instumental)
TTITLE9=All Through The Night (Instrumental)
EXTD=
EXTT0=
EXTT1=
EXTT2=
EXTT3=
EXTT4=
EXTT5=
EXTT6=
EXTT7=
EXTT8=
EXTT9=
PLAYORDER=
